<mxfile host="app.diagrams.net" agent="Mozilla/5.0 (Windows NT 10.0; Win64; x64) AppleWebKit/537.36 (KHTML, like Gecko) Chrome/130.0.0.0 Safari/537.36" version="24.8.3">
  <diagram name="Page-1" id="POjWEP2f18WCFqWoDT05">
    <mxGraphModel dx="2040" dy="804" grid="0" gridSize="10" guides="1" tooltips="1" connect="1" arrows="1" fold="1" page="1" pageScale="1" pageWidth="850" pageHeight="1100" math="0" shadow="0">
      <root>
        <mxCell id="0" />
        <mxCell id="1" parent="0" />
        <mxCell id="M41pOW3IKcCl3wNPq-qE-19" value="Patient" style="shape=umlActor;verticalLabelPosition=bottom;verticalAlign=top;html=1;outlineConnect=0;" parent="1" vertex="1">
          <mxGeometry x="113" y="428" width="30" height="60" as="geometry" />
        </mxCell>
        <mxCell id="M41pOW3IKcCl3wNPq-qE-20" value="Call Nurse Hotline" style="ellipse;whiteSpace=wrap;html=1;" parent="1" vertex="1">
          <mxGeometry x="302" y="426" width="120" height="60" as="geometry" />
        </mxCell>
        <mxCell id="M41pOW3IKcCl3wNPq-qE-21" value="" style="endArrow=none;html=1;rounded=0;" parent="1" source="M41pOW3IKcCl3wNPq-qE-19" target="M41pOW3IKcCl3wNPq-qE-20" edge="1">
          <mxGeometry width="50" height="50" relative="1" as="geometry">
            <mxPoint x="129" y="375" as="sourcePoint" />
            <mxPoint x="294" y="410" as="targetPoint" />
          </mxGeometry>
        </mxCell>
        <mxCell id="M41pOW3IKcCl3wNPq-qE-22" value="Nurse" style="shape=umlActor;verticalLabelPosition=bottom;verticalAlign=top;html=1;" parent="1" vertex="1">
          <mxGeometry x="709" y="352" width="30" height="60" as="geometry" />
        </mxCell>
        <mxCell id="M41pOW3IKcCl3wNPq-qE-23" value="" style="endArrow=none;html=1;rounded=0;" parent="1" source="M41pOW3IKcCl3wNPq-qE-20" target="M41pOW3IKcCl3wNPq-qE-22" edge="1">
          <mxGeometry width="50" height="50" relative="1" as="geometry">
            <mxPoint x="129" y="380" as="sourcePoint" />
            <mxPoint x="309" y="480" as="targetPoint" />
          </mxGeometry>
        </mxCell>
        <mxCell id="M41pOW3IKcCl3wNPq-qE-24" value="Register for Virtual Triage" style="ellipse;whiteSpace=wrap;html=1;" parent="1" vertex="1">
          <mxGeometry x="282" y="503" width="120" height="60" as="geometry" />
        </mxCell>
        <mxCell id="M41pOW3IKcCl3wNPq-qE-25" value="" style="endArrow=none;html=1;rounded=0;" parent="1" source="M41pOW3IKcCl3wNPq-qE-19" target="M41pOW3IKcCl3wNPq-qE-24" edge="1">
          <mxGeometry width="50" height="50" relative="1" as="geometry">
            <mxPoint x="129" y="380" as="sourcePoint" />
            <mxPoint x="309" y="480" as="targetPoint" />
          </mxGeometry>
        </mxCell>
        <mxCell id="M41pOW3IKcCl3wNPq-qE-26" value="Enter Condition Severity 1-10" style="ellipse;whiteSpace=wrap;html=1;" parent="1" vertex="1">
          <mxGeometry x="529" y="452" width="120" height="60" as="geometry" />
        </mxCell>
        <mxCell id="M41pOW3IKcCl3wNPq-qE-27" value="Includes" style="endArrow=classic;endSize=16;endFill=1;html=1;rounded=0;dashed=1;" parent="1" source="M41pOW3IKcCl3wNPq-qE-24" target="M41pOW3IKcCl3wNPq-qE-26" edge="1">
          <mxGeometry width="160" relative="1" as="geometry">
            <mxPoint x="309" y="462" as="sourcePoint" />
            <mxPoint x="469" y="582" as="targetPoint" />
          </mxGeometry>
        </mxCell>
        <mxCell id="M41pOW3IKcCl3wNPq-qE-28" value="Join &amp;amp; View Waitlist" style="ellipse;whiteSpace=wrap;html=1;" parent="1" vertex="1">
          <mxGeometry x="279" y="573" width="120" height="60" as="geometry" />
        </mxCell>
        <mxCell id="M41pOW3IKcCl3wNPq-qE-29" value="" style="endArrow=none;html=1;rounded=0;" parent="1" source="M41pOW3IKcCl3wNPq-qE-19" target="M41pOW3IKcCl3wNPq-qE-28" edge="1">
          <mxGeometry width="50" height="50" relative="1" as="geometry">
            <mxPoint x="129" y="385" as="sourcePoint" />
            <mxPoint x="320" y="556" as="targetPoint" />
          </mxGeometry>
        </mxCell>
        <mxCell id="M41pOW3IKcCl3wNPq-qE-30" value="Mister ED" style="shape=umlFrame;whiteSpace=wrap;html=1;pointerEvents=0;" parent="1" vertex="1">
          <mxGeometry x="159" y="310" width="530" height="331" as="geometry" />
        </mxCell>
        <mxCell id="M41pOW3IKcCl3wNPq-qE-31" value="View Nearby Hospitals" style="ellipse;whiteSpace=wrap;html=1;" parent="1" vertex="1">
          <mxGeometry x="265" y="332" width="120" height="60" as="geometry" />
        </mxCell>
        <mxCell id="M41pOW3IKcCl3wNPq-qE-32" value="" style="endArrow=none;html=1;rounded=0;" parent="1" source="M41pOW3IKcCl3wNPq-qE-19" target="M41pOW3IKcCl3wNPq-qE-31" edge="1">
          <mxGeometry width="50" height="50" relative="1" as="geometry">
            <mxPoint x="389" y="632" as="sourcePoint" />
            <mxPoint x="439" y="582" as="targetPoint" />
          </mxGeometry>
        </mxCell>
        <mxCell id="M41pOW3IKcCl3wNPq-qE-33" value="View Hospital Waitimes" style="ellipse;whiteSpace=wrap;html=1;" parent="1" vertex="1">
          <mxGeometry x="505" y="324" width="120" height="60" as="geometry" />
        </mxCell>
        <mxCell id="M41pOW3IKcCl3wNPq-qE-34" value="Extends" style="endArrow=classicThin;endSize=16;endFill=1;html=1;rounded=0;dashed=1;" parent="1" source="M41pOW3IKcCl3wNPq-qE-33" target="M41pOW3IKcCl3wNPq-qE-31" edge="1">
          <mxGeometry width="160" relative="1" as="geometry">
            <mxPoint x="511" y="220" as="sourcePoint" />
            <mxPoint x="397" y="264" as="targetPoint" />
          </mxGeometry>
        </mxCell>
        <mxCell id="M41pOW3IKcCl3wNPq-qE-35" value="Leave Waitlist" style="ellipse;whiteSpace=wrap;html=1;" parent="1" vertex="1">
          <mxGeometry x="492" y="569" width="120" height="60" as="geometry" />
        </mxCell>
        <mxCell id="M41pOW3IKcCl3wNPq-qE-36" value="Extends" style="endArrow=classic;endSize=16;endFill=1;html=1;rounded=0;dashed=1;" parent="1" source="M41pOW3IKcCl3wNPq-qE-35" target="M41pOW3IKcCl3wNPq-qE-28" edge="1">
          <mxGeometry width="160" relative="1" as="geometry">
            <mxPoint x="509" y="275" as="sourcePoint" />
            <mxPoint x="409" y="279" as="targetPoint" />
          </mxGeometry>
        </mxCell>
      </root>
    </mxGraphModel>
  </diagram>
</mxfile>
